USFL
nRows=245
nColumns=2
inDegrees=yes
endheader
time	tib_ant_r	
2.72782	 77.131057	
2.76109	 77.214050	
2.79435	 77.195057	
2.82762	 77.209179	
2.86089	 77.281806	
2.89415	 77.282024	
2.92742	 77.344776	
2.96069	 77.317284	
2.99395	 77.210219	
3.02722	 77.312560	
3.06048	 77.403798	
3.09375	 77.444192	
3.12702	 77.435127	
3.16028	 77.441269	
3.19355	 77.480447	
3.22681	 77.484252	
3.26008	 77.485258	
3.29335	 77.507525	
3.32661	 77.506548	
3.35988	 77.464854	
3.39315	 77.459444	
3.42641	 77.469703	
3.45968	 77.451574	
3.49294	 77.424527	
3.52621	 77.422113	
3.55948	 77.424728	
3.59274	 77.431385	
3.62601	 77.433477	
3.65927	 77.414944	
3.69254	 77.420954	
3.72581	 77.410622	
3.75907	 77.399971	
3.79234	 77.397016	
3.8256	 77.383440	
3.85887	 77.381695	
3.89214	 77.346920	
3.9254	 77.320229	
3.95867	 77.306293	
3.99194	 77.333861	
4.0252	 77.329691	
4.05847	 77.353625	
4.09173	 77.372071	
4.125	 77.368089	
4.15827	 77.362944	
4.19153	 77.446406	
4.2248	 77.421491	
4.25806	 77.406058	
4.29133	 77.486369	
4.3246	 77.508322	
4.35786	 77.556316	
4.39113	 77.612054	
4.4244	 77.623342	
4.45766	 77.634508	
4.49093	 77.590514	
4.52419	 77.694839	
4.55746	 77.693401	
4.59073	 77.737582	
4.62399	 77.731384	
4.65726	 77.712487	
4.69052	 77.678903	
4.72379	 77.675815	
4.75706	 77.687141	
4.79032	 77.703283	
4.82359	 77.647617	
4.85685	 77.588385	
4.89012	 77.646376	
4.92339	 77.844772	
4.95665	 78.153308	
4.98992	 78.298630	
5.02319	 77.876111	
5.05645	 70.930396	
5.08972	 71.139279	
5.12298	 66.176803	
5.15625	 66.493842	
5.18952	 66.320714	
5.22278	 66.271459	
5.25605	 62.261911	
5.28931	 62.199606	
5.32258	 61.904841	
5.35585	 61.657963	
5.38911	 61.444752	
5.42238	 61.309652	
5.45565	 61.211032	
5.48891	 61.106047	
5.52218	 61.073681	
5.55544	 61.027693	
5.58871	 61.184611	
5.62198	 61.203301	
5.65524	 61.352460	
5.68851	 61.174689	
5.72177	 61.138125	
5.75504	 61.228654	
5.78831	 61.173844	
5.82157	 61.173190	
5.85484	 61.297603	
5.8881	 61.333527	
5.92137	 61.284272	
5.95464	 61.377440	
5.9879	 61.635927	
6.02117	 61.963382	
6.05444	 62.017924	
6.0877	 62.057620	
6.12097	 62.087448	
6.15423	 62.078129	
6.1875	 62.029408	
6.22077	 61.995038	
6.25403	 62.001655	
6.2873	 62.087661	
6.32056	 61.972845	
6.35383	 62.090836	
6.3871	 62.154839	
6.42036	 62.188072	
6.45363	 62.242114	
6.4869	 62.234172	
6.52016	 62.234491	
6.55343	 62.232802	
6.58669	 62.145097	
6.61996	 62.169633	
6.65323	 62.089032	
6.68649	 62.151802	
6.71976	 62.107072	
6.75302	 62.103420	
6.78629	 62.152887	
6.81956	 62.252302	
6.85282	 62.331702	
6.88609	 62.469405	
6.91935	 62.482838	
6.95262	 62.378082	
6.98589	 62.335737	
7.01915	 62.321911	
7.05242	 62.263554	
7.08569	 62.237921	
7.11895	 62.232801	
7.15222	 62.242277	
7.18548	 62.237024	
7.21875	 62.194719	
7.25202	 62.191520	
7.28528	 62.144195	
7.31855	 62.125290	
7.35181	 62.159370	
7.38508	 62.236084	
7.41835	 62.312417	
7.45161	 62.364174	
7.48488	 62.332084	
7.51815	 62.177130	
7.55141	 62.187080	
7.58468	 61.981362	
7.61794	 62.002224	
7.65121	 61.968742	
7.68448	 61.901043	
7.71774	 61.884187	
7.75101	 61.955671	
7.78427	 61.829758	
7.81754	 61.844200	
7.85081	 61.787096	
7.88407	 61.693340	
7.91734	 61.702519	
7.9506	 61.707894	
7.98387	 61.774596	
8.01714	 61.719634	
8.0504	 61.589514	
8.08367	 61.646607	
8.11694	 61.481381	
8.1502	 61.470336	
8.18347	 61.454408	
8.21673	 61.410068	
8.25	 61.296642	
8.28327	 61.083110	
8.31653	 60.905569	
8.3498	 60.845955	
8.38306	 60.874557	
8.41633	 60.926823	
8.4496	 60.980940	
8.48286	 61.034918	
8.51613	 61.078973	
8.5494	 61.033980	
8.58266	 61.091969	
8.61593	 61.050743	
8.64919	 61.148851	
8.68246	 61.132370	
8.71573	 61.075168	
8.74899	 61.073801	
8.78226	 61.146374	
8.81552	 61.102019	
8.84879	 61.105116	
8.88206	 61.274300	
8.91532	 61.118333	
8.94859	 61.208844	
8.98185	 61.103522	
9.01512	 61.140955	
9.04839	 61.133186	
9.08165	 61.169287	
9.11492	 61.084883	
9.14819	 61.094898	
9.18145	 61.020863	
9.21472	 61.054021	
9.24798	 61.152353	
9.28125	 61.006106	
9.31452	 61.084714	
9.34778	 61.133140	
9.38105	 61.087854	
9.41431	 61.042774	
9.44758	 60.939958	
9.48085	 60.912452	
9.51411	 60.915828	
9.54738	 60.895408	
9.58065	 60.862323	
9.61391	 60.919201	
9.64718	 61.074365	
9.68044	 61.647755	
9.71371	 61.634785	
9.74698	 59.394435	
9.78024	 58.906042	
9.81351	 74.318776	
9.84677	 74.563267	
9.88004	 74.656864	
9.91331	 74.778002	
9.94657	 74.929169	
9.97984	 74.797232	
10.0131	 74.630924	
10.0464	 74.670353	
10.0796	 74.636759	
10.1129	 74.215527	
10.1462	 73.446090	
10.1794	 73.301419	
10.2127	 72.569611	
10.246	 72.199641	
10.2792	 77.166620	
10.3125	 77.220560	
10.3458	 77.330251	
10.379	 77.341839	
10.4123	 77.352268	
10.4456	 77.306739	
10.4788	 77.383280	
10.5121	 77.532606	
10.5454	 77.544024	
10.5786	 77.615005	
10.6119	 77.496174	
10.6452	 77.602282	
10.6784	 77.594089	
10.7117	 77.542829	
10.745	 77.613604	
10.7782	 77.635347	
10.8115	 77.619405	
10.8448	 77.584449	
